<svg xmlns="http://www.w3.org/2000/svg" xmlns:xlink="http://www.w3.org/1999/xlink" id="Layer_1" x="0px" y="0px" viewBox="0 0 550 408" style="enable-background:new 0 0 550 408;" xml:space="preserve">
<style type="text/css">
	.st0{fill:#E0F1FF;}
	.st1{opacity:0.4;}
	.st2{fill:#A6A4F7;}
	.st3{fill:#FFFFFF;stroke:#A6A4F7;stroke-width:0.5;stroke-miterlimit:10;}
	.st4{fill:#CBE7FD;}
	.st5{fill:none;stroke:#8CA8B1;stroke-width:0.55;stroke-miterlimit:10;}
	.st6{fill:#0347F9;}
	.st7{fill:#FFFFFF;}
	.st8{fill:#69BA0D;}
	.st9{fill:#528902;}
	.st10{fill:#D2DCE0;}
	.st11{fill:#999999;}
	.st12{fill:#0039D2;}
	.st13{opacity:0.8;fill:#FFFFFF;enable-background:new    ;}
	.st14{opacity:0.5;fill:#A6A4F7;enable-background:new    ;}
	.st15{opacity:0.4;fill:#CCE9FF;enable-background:new    ;}
	.st16{opacity:0.7;fill:#0347FB;enable-background:new    ;}
	.st17{opacity:0.3;}
	.st18{opacity:0.5;fill:none;stroke:#A6A4F7;stroke-width:0.25;stroke-miterlimit:10;enable-background:new    ;}
	.st19{opacity:0.4;fill:#88CEEA;enable-background:new    ;}
	.st20{opacity:0.6;}
	.st21{fill:none;stroke:#9DACC6;stroke-width:2;stroke-linecap:round;stroke-miterlimit:10;}
	.st22{opacity:0.7;fill:#0B2E9E;enable-background:new    ;}
	.st23{fill:#F2F1FF;}
	.st24{opacity:0.4;fill:none;stroke:#9DACC6;stroke-width:7;stroke-linecap:round;stroke-miterlimit:10;enable-background:new    ;}
	.st25{opacity:0.7;}
	.st26{fill:#0347FB;}
	.st27{fill:#FFFFFF;stroke:#0061A3;stroke-miterlimit:10;}
	.st28{fill:#0061A3;}
	.st29{fill:url(#SVGID_1_);}
	.st30{fill:#0055FB;}
	.st31{fill:#3339C7;}
	.st32{fill:#0E0108;}
	.st33{fill:#FFAC52;}
	.st34{fill:#C67775;}
	.st35{fill:none;stroke:#0E0108;stroke-width:0.5;stroke-linecap:round;stroke-linejoin:round;stroke-miterlimit:10;}
	.st36{fill:none;stroke:#FFB127;stroke-width:0.5;stroke-linecap:round;stroke-linejoin:round;stroke-miterlimit:10;}
	.st37{fill:#050528;}
	.st38{fill:none;stroke:#FFFFFF;stroke-width:0.5;stroke-linecap:round;stroke-linejoin:round;stroke-miterlimit:10;}
	.st39{fill:none;stroke:#050528;stroke-width:0.5;stroke-linecap:round;stroke-linejoin:round;stroke-miterlimit:10;}
	.st40{fill:#0048FD;}
	.st41{opacity:0.5;fill:#050528;enable-background:new    ;}
	.st42{fill:#E38753;}
	.st43{opacity:0.5;fill:#0347FB;enable-background:new    ;}
	.st44{fill:#080638;}
	.st45{fill:#292929;}
	.st46{fill:#D9D9FC;}
	.st47{fill:none;}
	.st48{opacity:0.6;fill-rule:evenodd;clip-rule:evenodd;fill:#0347FB;enable-background:new    ;}
	.st49{fill-rule:evenodd;clip-rule:evenodd;fill:#D0E7FF;}
	.st50{fill-rule:evenodd;clip-rule:evenodd;fill:#FFFFFF;}
	.st51{fill-rule:evenodd;clip-rule:evenodd;fill:#2FA83E;}
	.st52{fill:url(#SVGID_2_);}
	.st53{opacity:0.7;fill:none;stroke:#0347FB;stroke-miterlimit:10;enable-background:new    ;}
</style>
<path class="st0" d="M496.2,71c67.6,63.1,21.7,180.7-23.8,226.8c-4.6,4.6-26.9,35.1-31.7,39.5c-14.7,13.4-314,103.9-409.4-74.1  c-1.7-3.2-8.3-18-9.3-21.5c-4.4-15,12.1-25.7,76.4,5.4c10.8,5.2,37-12.7,46.7-19.7C181.6,200.8,227,113,256.6,73.8  C261.5,67.2,377.5-39.8,496.2,71z"></path>
<g>
	<g class="st1">
		<g>
			<path class="st2" d="M142.7,17.9v154.4c0,4.8-3.9,8.8-8.8,8.8H57c-2.4,0-4.6-1-6.2-2.6c-1.6-1.6-2.5-3.8-2.5-6.2V17.9     c0-4.8,3.9-8.8,8.8-8.8H134c1.4,0,2.8,0.3,4,0.9C140.7,11.5,142.7,14.5,142.7,17.9z"></path>
		</g>
	</g>
	<g>
		<g>
			<path class="st3" d="M137.1,12.9v154.4c0,4.8-3.9,8.8-8.8,8.8H51.5c-2.4,0-4.6-1-6.2-2.6c-1.6-1.6-2.5-3.8-2.5-6.2V12.9     c0-4.8,3.9-8.8,8.8-8.8h76.9c1.4,0,2.8,0.3,4,0.9C135.2,6.6,137.1,9.5,137.1,12.9z"></path>
		</g>
	</g>
	<g class="st1">
		<path class="st4" d="M132.8,13.3v153.6c0,2.6-2.1,4.8-4.8,4.8H51.9c-1.9,0-3.5-1.1-4.3-2.7l0,0c-0.3-0.6-0.5-1.3-0.5-2.1V13.3    c0-2.6,2.1-4.8,4.8-4.8H128c0.8,0,1.6,0.2,2.3,0.6l0,0C131.7,9.9,132.8,11.5,132.8,13.3z"></path>
	</g>
	<g>
		<g>
			<g>
				<g>
					<path class="st5" d="M113.2,163.6H65.5c-4,0-7.2-2.8-7.2-6.2s3.2-6.2,7.2-6.2h47.7c4,0,7.2,2.8,7.2,6.2       C120.4,160.9,117.2,163.6,113.2,163.6z"></path>
				</g>
			</g>
		</g>
		<g>
			<g>
				<g>
					<g>
						<polygon class="st6" points="71.1,159.3 69.2,160.2 69.6,158.2 68.1,156.8 70.1,156.5 71.1,154.6 72,156.5 74,156.8         72.5,158.2 72.9,160.2       "></polygon>
					</g>
				</g>
			</g>
			<g>
				<g>
					<g>
						<polygon class="st6" points="80.2,159.3 78.4,160.2 78.7,158.2 77.3,156.8 79.3,156.5 80.2,154.6 81.1,156.5 83.2,156.8         81.7,158.2 82,160.2       "></polygon>
					</g>
				</g>
			</g>
			<g>
				<g>
					<g>
						<polygon class="st6" points="89.4,159.3 87.6,160.2 87.9,158.2 86.4,156.8 88.5,156.5 89.4,154.6 90.3,156.5 92.3,156.8         90.8,158.2 91.2,160.2       "></polygon>
					</g>
				</g>
			</g>
			<g>
				<g>
					<g>
						<polygon class="st6" points="98.5,159.3 96.7,160.2 97.1,158.2 95.6,156.8 97.6,156.5 98.5,154.6 99.4,156.5 101.5,156.8         100,158.2 100.3,160.2       "></polygon>
					</g>
				</g>
			</g>
			<g>
				<g>
					<g>
						<polygon class="st6" points="107.7,159.3 105.9,160.2 106.2,158.2 104.7,156.8 106.8,156.5 107.7,154.6 108.6,156.5         110.6,156.8 109.2,158.2 109.5,160.2       "></polygon>
					</g>
				</g>
			</g>
		</g>
	</g>
	<g>
		<g>
			<path class="st7" d="M124.6,142.2H57c-2.2,0-3.9-1.8-3.9-3.9V95.9c0-2.2,1.8-3.9,3.9-3.9h67.6c2.2,0,3.9,1.8,3.9,3.9v42.4     C128.5,140.4,126.7,142.2,124.6,142.2z"></path>
		</g>
		<g>
			<g>
				<g>
					<path class="st8" d="M75.3,112.8c-0.1,0-0.1,0-0.2,0c0,0.1,0,0.2,0,0.3l0,0c0.1,3.4,0.2,7.3,0.2,9.9c-4.1,0.8-8.1,0.8-12.2,0       c0-2.6,0-6.5,0.1-10c0-0.2,0-0.3,0-0.4s0-0.1,0-0.2l0,0c-0.4,0-0.8-0.1-1.1-0.3c-0.3-0.1-0.5-0.3-0.7-0.4       c-0.1,0-0.1-0.1-0.2-0.1c-0.4-0.3-0.6-0.6-0.6-0.6c0.2-0.6,0.5-1.2,0.8-1.7c0.1-0.2,0.2-0.4,0.3-0.6c0.8-1.4,1.8-2.6,2-3l0,0       l0,0c0.2-0.3,0.9-0.8,1.8-1.3c0.2-0.1,0.3-0.2,0.5-0.3c0.1-0.1,0.2-0.1,0.4-0.2c0.1,0,0.1-0.1,0.2-0.1c0.2-0.1,0.4-0.1,0.6-0.1       c0.1,0,0.2,0.1,0.2,0.2l0,0c0,1.1,0.9,1.9,2,1.9c1,0,1.8-0.9,1.8-1.9l0,0c0-0.1,0.1-0.2,0.2-0.2s0.2,0,0.2,0       c0.3,0,0.5,0.1,0.7,0.2c0.1,0,0.1,0.1,0.2,0.1c0.9,0.5,1.8,1.1,2,1.5c0.4,0.5,2.3,3.2,3.3,5.4       C77.3,111.8,76.1,112.5,75.3,112.8z"></path>
				</g>
			</g>
			<g>
				<g>
					<path class="st9" d="M64.6,110.6l-1.4,2.5c0-0.1,0-0.3,0-0.4s0-0.1,0-0.2l0,0c0,0,0,0-0.1,0l1.2-2.1c0-0.1,0.1-0.1,0.2-0.1       C64.6,110.4,64.6,110.5,64.6,110.6z"></path>
				</g>
			</g>
			<g>
				<g>
					<path class="st9" d="M75.1,112.8c0,0.1,0,0.2,0,0.3l-1.4-2.5c0-0.1,0-0.2,0.1-0.2s0.2,0,0.2,0.1l1.3,2.3       C75.2,112.8,75.1,112.8,75.1,112.8z"></path>
				</g>
			</g>
		</g>
		<g>
			<g>
				<g>
					<path class="st10" d="M121.4,105.6H84c-0.2,0-0.3-0.2-0.3-0.4s0.2-0.4,0.3-0.4h37.4c0.2,0,0.3,0.2,0.3,0.4       S121.6,105.6,121.4,105.6z"></path>
				</g>
			</g>
			<g>
				<g>
					<path class="st10" d="M121.4,110H84c-0.2,0-0.3-0.2-0.3-0.4c0-0.2,0.2-0.4,0.3-0.4h37.4c0.2,0,0.3,0.2,0.3,0.4       C121.8,109.9,121.6,110,121.4,110z"></path>
				</g>
			</g>
			<g>
				<g>
					<path class="st10" d="M121.4,114.4H84c-0.2,0-0.3-0.2-0.3-0.4c0-0.2,0.2-0.4,0.3-0.4h37.4c0.2,0,0.3,0.2,0.3,0.4       C121.8,114.3,121.6,114.4,121.4,114.4z"></path>
				</g>
			</g>
			<g>
				<g>
					<path class="st10" d="M121.4,118.8H84c-0.2,0-0.3-0.2-0.3-0.4c0-0.2,0.2-0.4,0.3-0.4h37.4c0.2,0,0.3,0.2,0.3,0.4       C121.8,118.6,121.6,118.8,121.4,118.8z"></path>
				</g>
			</g>
			<g>
				<g>
					<path class="st10" d="M121.4,123.2H84c-0.2,0-0.3-0.2-0.3-0.4c0-0.2,0.2-0.4,0.3-0.4h37.4c0.2,0,0.3,0.2,0.3,0.4       C121.8,123,121.6,123.2,121.4,123.2z"></path>
				</g>
			</g>
		</g>
	</g>
	<g>
		<g>
			<path class="st11" d="M101.9,16.7H72.3c-0.6,0-1.1-0.5-1.1-1.1l0,0c0-0.6,0.5-1.1,1.1-1.1h29.6c0.6,0,1.1,0.5,1.1,1.1l0,0     C103,16.2,102.5,16.7,101.9,16.7z"></path>
		</g>
		<g>
			<circle class="st11" cx="109.4" cy="15.5" r="1.3"></circle>
		</g>
	</g>
	<g>
		<path class="st6" d="M128.5,24.9c0-1.3-1.1-2.4-2.4-2.4H55.5c-1.3,0-2.4,1.1-2.4,2.4v56.7l23.3-34.1l13.2,19.3L98,79l4-5.9    l8.8-12.9l17.1,25c0.4-0.4,0.6-1,0.6-1.6V24.9z"></path>
		<path class="st6" d="M102,73.2L98,79l-8.4-12.3L76.4,47.4L53,81.6v2.1c0,1.3,1.1,2.4,2.4,2.4H126c0.7,0,1.4-0.3,1.8-0.9l-17.1-25    L102,73.2z"></path>
		<path class="st12" d="M97.9,79L76.4,35.7L53,81.6v2.1c0,1.3,1.1,2.4,2.4,2.4H126c0.7,0,1.4-0.3,1.8-0.9l-17.1-36.7L97.9,79z"></path>
	</g>
	<path class="st13" d="M102.3,41.7c0,3.3-2.6,6-5.8,6c-3.2,0-5.8-2.7-5.8-6s2.6-6,5.8-6S102.3,38.4,102.3,41.7z"></path>
</g>
<g>
	<path class="st14" d="M449,83.1v241.7c0,4.1-3.3,7.4-7.4,7.4H138.3c-4.1,0-7.4-3.3-7.4-7.4V83.1c0-4.1,3.3-7.4,7.4-7.4h303.3   C445.7,75.7,449,79,449,83.1z"></path>
	<path class="st3" d="M443.1,75.7v241.7c0,4.1-3.3,7.4-7.4,7.4H132.4c-4.1,0-7.4-3.3-7.4-7.4V75.7c0-4.1,3.3-7.4,7.4-7.4h303.3   C439.8,68.3,443.1,71.6,443.1,75.7z"></path>
	<rect x="125" y="92.3" class="st15" width="318.1" height="232.5"></rect>
	<path class="st16" d="M186.6,117.4h-38.2c-2.6,0-4.6-2.1-4.6-4.6l0,0c0-2.6,2.1-4.6,4.6-4.6h38.2c2.6,0,4.6,2.1,4.6,4.6l0,0   C191.2,115.3,189.1,117.4,186.6,117.4z"></path>
	<g class="st17">
		<path class="st2" d="M144.4,80.4c0,1.5-1.2,2.8-2.8,2.8s-2.8-1.2-2.8-2.8s1.2-2.8,2.8-2.8S144.4,78.8,144.4,80.4z"></path>
		<path class="st2" d="M154.7,80.4c0,1.5-1.2,2.8-2.8,2.8s-2.8-1.2-2.8-2.8s1.2-2.8,2.8-2.8S154.7,78.8,154.7,80.4z"></path>
		<path class="st2" d="M165,80.4c0,1.5-1.2,2.8-2.8,2.8s-2.8-1.2-2.8-2.8s1.2-2.8,2.8-2.8S165,78.8,165,80.4z"></path>
	</g>
	<path class="st18" d="M418.4,87.3H194.2c-2.5,0-4.5-2-4.5-4.5v-4.3c0-2.5,2-4.5,4.5-4.5h224.2c2.5,0,4.5,2,4.5,4.5v4.3   C422.9,85.3,420.9,87.3,418.4,87.3z"></path>
	<g>
		<g>
			<path class="st7" d="M148.9,280.7h269.9c7.1,0,12.9-5.8,12.9-12.9V148.7c0-7.1-5.8-12.9-12.9-12.9H148.9     c-7.1,0-12.9,5.8-12.9,12.9v119.1C135.9,274.9,141.7,280.7,148.9,280.7z"></path>
			<path class="st19" d="M152.9,137.4h261.8c8,0,14.4,6.4,14.4,14.4v49.4c0,2.1-1.3,3.9-3.3,4.6l0,0c-1,0.4-1.7,1.3-1.7,2.4l0,0     c0,1.1,0.7,2.1,1.7,2.4l0,0c1.9,0.7,3.3,2.5,3.3,4.6v49.4c0,7.9-6.4,14.4-14.4,14.4H152.9c-7.9,0-14.4-6.4-14.4-14.4V151.8     C138.5,143.9,144.9,137.4,152.9,137.4z"></path>
			<g>
				
					<image style="overflow:visible;opacity:0.1;enable-background:new    ;" width="193" height="147" xlink:href="6254CD69.png" transform="matrix(0.9932 0 0 0.9932 239.0498 135.8933)">
				</image>
				<g>
					<path class="st6" d="M240.8,137.4h173.9c8,0,14.4,6.4,14.4,14.4v49.4c0,2.1-1.3,3.9-3.3,4.6c-1,0.4-1.7,1.3-1.7,2.4l0,0       c0,1.1,0.7,2.1,1.7,2.4l0,0c1.9,0.7,3.3,2.5,3.3,4.6v49.4c0,7.9-6.4,14.4-14.4,14.4H240.8V137.4z"></path>
				</g>
			</g>
		</g>
	</g>
	<g class="st20">
		<g>
			
				<image style="overflow:visible;opacity:0.1;enable-background:new    ;" width="88" height="37" xlink:href="6254CD6B.png" transform="matrix(0.973 0 0 0.973 143.5825 158.8933)">
			</image>
			<g>
				<g>
					<g>
						<path class="st7" d="M183.6,192.2h-35.4c-2,0-3.7-1.6-3.7-3.7v-24.3c0-2,1.6-3.7,3.7-3.7h35.4c2,0,3.7,1.6,3.7,3.7v24.3        C187.3,190.6,185.6,192.2,183.6,192.2z"></path>
					</g>
					<g>
						<path class="st7" d="M226,168.1h-27.9c-1.1,0-2.1-0.9-2.1-2.1s0.9-2.1,2.1-2.1H226c1.1,0,2.1,0.9,2.1,2.1        S227.1,168.1,226,168.1z"></path>
					</g>
					<g>
						<path class="st7" d="M226,178.4h-27.9c-1.1,0-2.1-0.9-2.1-2.1s0.9-2.1,2.1-2.1H226c1.1,0,2.1,0.9,2.1,2.1        S227.1,178.4,226,178.4z"></path>
					</g>
					<g>
						<path class="st7" d="M212.5,188.8h-14.4c-1.1,0-2.1-0.9-2.1-2.1s0.9-2.1,2.1-2.1h14.4c1.1,0,2.1,0.9,2.1,2.1        S213.6,188.8,212.5,188.8z"></path>
					</g>
				</g>
			</g>
		</g>
		<g>
			
				<image style="overflow:visible;opacity:0.1;enable-background:new    ;" width="88" height="37" xlink:href="6254CD6E.png" transform="matrix(0.973 0 0 0.973 143.5825 198.8933)">
			</image>
			<g>
				<g>
					<g>
						<path class="st7" d="M183.6,231.6h-35.4c-2,0-3.7-1.6-3.7-3.7v-24.3c0-2,1.6-3.7,3.7-3.7h35.4c2,0,3.7,1.6,3.7,3.7v24.3        C187.3,230,185.6,231.6,183.6,231.6z"></path>
					</g>
					<g>
						<path class="st7" d="M226,207.5h-27.9c-1.1,0-2.1-0.9-2.1-2.1s0.9-2.1,2.1-2.1H226c1.1,0,2.1,0.9,2.1,2.1        S227.1,207.5,226,207.5z"></path>
					</g>
					<g>
						<path class="st7" d="M226,217.9h-27.9c-1.1,0-2.1-0.9-2.1-2.1s0.9-2.1,2.1-2.1H226c1.1,0,2.1,0.9,2.1,2.1        S227.1,217.9,226,217.9z"></path>
					</g>
					<g>
						<path class="st7" d="M212.5,228.2h-14.4c-1.1,0-2.1-0.9-2.1-2.1s0.9-2.1,2.1-2.1h14.4c1.1,0,2.1,0.9,2.1,2.1        S213.6,228.2,212.5,228.2z"></path>
					</g>
				</g>
			</g>
		</g>
	</g>
	<line class="st21" x1="259.3" y1="114.7" x2="286.4" y2="114.7"></line>
	<line class="st21" x1="298.5" y1="114.7" x2="325.6" y2="114.7"></line>
	<line class="st21" x1="337.7" y1="114.7" x2="364.8" y2="114.7"></line>
</g>
<path class="st22" d="M331.7,229.5c-11.1,0-20.1-9-20.1-20.1s9-20.1,20.1-20.1s20.1,9,20.1,20.1  C351.8,220.4,342.8,229.5,331.7,229.5z"></path>
<g>
	
		<image style="overflow:visible;opacity:0.3;enable-background:new    ;" width="30" height="32" xlink:href="6254CD6F.png" transform="matrix(0.9667 0 0 0.9667 318.6756 196.7089)">
	</image>
	<g>
		<polygon class="st23" points="343.5,209.5 335,214.5 326.4,219.4 326.4,209.5 326.4,199.6 335,204.6   "></polygon>
	</g>
</g>
<line class="st24" x1="148.6" y1="303" x2="413.8" y2="303"></line>
<line class="st21" x1="376.9" y1="114.7" x2="404" y2="114.7"></line>
<g class="st25">
	<path class="st26" d="M427.2,108.9h-1.1c-0.1,0-0.2,0.1-0.2,0.1l-0.2,0.6h-10.5c0,0-0.1,0-0.1,0.1v0.1l0.2,1.2c0,0,0,0,0,0.1v0.1   l0.2,1.5v0.4l0.2,1.4v0.4l0.2,1.3c0,0.1,0.1,0.2,0.2,0.2h7.8l-0.3,0.9c-0.1,0.4-0.5,0.7-1,0.7H417c-0.1,0-0.2,0.1-0.2,0.2   s0.1,0.2,0.2,0.2h0.7c-0.2,0.1-0.3,0.3-0.3,0.6c0,0.4,0.3,0.7,0.7,0.7s0.7-0.3,0.7-0.7c0-0.3-0.1-0.5-0.3-0.6h3.1   c-0.2,0.1-0.3,0.3-0.3,0.6c0,0.4,0.3,0.7,0.7,0.7s0.7-0.3,0.7-0.7c0-0.3-0.1-0.5-0.3-0.6h0.2c0.6,0,1.1-0.4,1.3-1l0.3-1.1l0,0l0,0   l0,0l0.4-1.3l0.1-0.4l0.4-1.4l0.1-0.4l0.4-1.5v-0.2l0,0l0.3-1.2l0,0l0.2-0.6h1c0.1,0,0.2-0.1,0.2-0.2   C427.4,109,427.3,108.9,427.2,108.9z M425.4,110.9h-9.9l-0.1-0.9h10.2L425.4,110.9z"></path>
</g>
<g>
	<path class="st27" d="M214.4,336.1h-73.1c-6,0-10.2-4.9-9.3-10.9l14.8-96.1c0.9-6,6.6-10.9,12.6-10.9h73.1c6,0,10.2,4.9,9.3,10.9   L227,325.2C226.1,331.2,220.5,336.1,214.4,336.1z"></path>
	<path class="st28" d="M238.2,219.9c1.4,1.9,2,4.4,1.6,7.1L225,323.1c-0.9,6-6.6,10.9-12.6,10.9h-73.1c-2.2,0-4.1-0.6-5.6-1.7   c1.6,2.3,4.4,3.8,7.7,3.8h73.1c6,0,11.7-4.9,12.6-10.9l14.8-96.1C242.5,225.2,241,221.8,238.2,219.9z"></path>
	
		<linearGradient id="SVGID_1_" gradientUnits="userSpaceOnUse" x1="152.968" y1="278.9321" x2="215.1483" y2="278.9321" gradientTransform="matrix(1 0 0 1 0 8)">
		<stop offset="0" style="stop-color:#FC7318"></stop>
		<stop offset="1" style="stop-color:#FEB423"></stop>
	</linearGradient>
	<path class="st29" d="M160.1,291.7l-2.6-1.5c-0.1,0-0.1,0-0.2,0l-3.1,1.5c-0.1,0.1-0.3,0-0.3-0.2l1-3.2c0-0.1,0-0.1,0-0.2l-2-2.2   c-0.1-0.1,0-0.3,0.1-0.3l3.2-0.5c0.1,0,0.1,0,0.2-0.1l1.8-2.9c0.1-0.1,0.3-0.1,0.3,0l1,2.9c0,0.1,0.1,0.1,0.1,0.1l3.1,0.4   c0.1,0,0.2,0.2,0.1,0.3l-2.6,2.3c-0.1,0-0.1,0.1-0.1,0.2l0.1,3.1C160.4,291.7,160.3,291.8,160.1,291.7z M173.4,291.5l-0.1-3.1   c0-0.1,0-0.1,0.1-0.2l2.6-2.3c0.1-0.1,0.1-0.3-0.1-0.3l-3.1-0.4c-0.1,0-0.1,0-0.1-0.1l-1-2.9c-0.1-0.1-0.3-0.1-0.3,0l-1.8,2.9   c0,0.1-0.1,0.1-0.2,0.1l-3.2,0.5c-0.2,0-0.3,0.2-0.1,0.3l2,2.2c0,0,0.1,0.1,0,0.2l-1,3.2c-0.1,0.2,0.1,0.3,0.3,0.2l3.1-1.5   c0.1,0,0.1,0,0.2,0l2.6,1.5C173.3,291.8,173.5,291.7,173.4,291.5z M186.5,291.5l-0.1-3.1c0-0.1,0-0.1,0.1-0.2l2.6-2.3   c0.1-0.1,0.1-0.3-0.1-0.3l-3.1-0.4c-0.1,0-0.1,0-0.1-0.1l-1-2.9c-0.1-0.1-0.3-0.1-0.3,0l-1.8,2.9c0,0.1-0.1,0.1-0.2,0.1l-3.2,0.5   c-0.2,0-0.3,0.2-0.1,0.3l2,2.2c0,0,0.1,0.1,0,0.2l-1,3.2c-0.1,0.2,0.1,0.3,0.3,0.2l3.1-1.5c0.1,0,0.1,0,0.2,0l2.6,1.5   C186.3,291.8,186.5,291.7,186.5,291.5z M199.5,291.5l-0.1-3.1c0-0.1,0-0.1,0.1-0.2l2.6-2.3c0.1-0.1,0.1-0.3-0.1-0.3l-3.1-0.4   c-0.1,0-0.1,0-0.1-0.1l-1-2.9c-0.1-0.1-0.3-0.1-0.3,0l-1.8,2.9c0,0.1-0.1,0.1-0.2,0.1l-3.2,0.5c-0.2,0-0.3,0.2-0.1,0.3l2,2.2   c0,0,0.1,0.1,0,0.2l-1,3.2c-0.1,0.2,0.1,0.3,0.3,0.2l3.1-1.5c0.1,0,0.1,0,0.2,0l2.6,1.5C199.3,291.8,199.5,291.7,199.5,291.5z    M212.5,291.5l-0.1-3.1c0-0.1,0-0.1,0.1-0.2l2.6-2.3c0.1-0.1,0.1-0.3-0.1-0.3l-3.1-0.4c-0.1,0-0.1,0-0.1-0.1l-1-2.9   c-0.1-0.1-0.3-0.1-0.3,0l-1.8,2.9c0,0.1-0.1,0.1-0.2,0.1l-3.2,0.5c-0.2,0-0.3,0.2-0.1,0.3l2,2.2c0,0,0.1,0.1,0,0.2l-1,3.2   c-0.1,0.2,0.1,0.3,0.3,0.2l3.1-1.5c0.1,0,0.1,0,0.2,0l2.6,1.5C212.3,291.8,212.5,291.7,212.5,291.5z"></path>
	<path class="st8" d="M191.7,316.8h-24.5c-3.8,0-6.5-3.1-5.9-7l0,0c0.6-3.8,4.2-7,8-7h24.5c3.8,0,6.5,3.1,5.9,7l0,0   C199.1,313.7,195.5,316.8,191.7,316.8z"></path>
	<g>
		<g>
			<path class="st30" d="M217,247.9v23.7c0,0-3.1-0.1-9.5-0.1c-0.9,0-2.3-1.2-3-1.2c-3.7,0.1-8.3,1.2-8.3,1.2h-41.1     c0.2-1.4,0.6-2.6,1.3-3.8c5.6-10.1,27-14.6,30.4-19.2c1.2-1.6,2.5-3,3.7-4.3s2.2-2.5,3.2-3.2c1.9-1.3,4.7,3.8,4.7,3.8     c4.4,2.1,11.1,1.2,15.1,0.3C215.3,244.7,217,246,217,247.9z"></path>
		</g>
		<g>
			<path class="st31" d="M217,267.7v3.9c0,0-3.1-0.1-9.5-0.1c-0.9,0-2.3-1.2-3-1.2c-3.7,0.1-8.3,1.2-8.3,1.2h-41.1     c0.2-1.4,0.6-2.6,1.3-3.8H217z"></path>
		</g>
		<g>
			<g>
				<path class="st31" d="M168.8,257.8c0,0,1.6-0.8,2.6-1.3c0.1,0,1.3-1.5,2.9-1.1c2.2,0.5,3.6,2.2,4.3,3.2c0.2,0.4,0.7,0.5,1.1,0.2      l0,0c0.4-0.2,0.5-0.7,0.3-1.1c-0.7-1.1-2.1-3.1-4.3-3.6C173.4,253.6,170.4,254.2,168.8,257.8z"></path>
			</g>
			<g>
				<path class="st31" d="M172.2,256.2c0,0,1.6-0.7,2.6-1.2c0.1-0.1,1.3-1.5,2.9-1.1c2.2,0.5,3.6,2.2,4.3,3.2      c0.2,0.4,0.7,0.5,1.1,0.2l0,0c0.4-0.2,0.5-0.7,0.3-1.1c-0.7-1.1-2.1-3.1-4.3-3.6C176.7,252,173.8,252.6,172.2,256.2z"></path>
			</g>
			<g>
				<path class="st31" d="M175.3,254.9c0,0,1.6-0.8,2.6-1.3c0.1-0.1,1.3-1.5,2.9-1.1c2.2,0.5,3.6,2.2,4.3,3.2      c0.2,0.4,0.7,0.5,1.1,0.2l0,0c0.4-0.2,0.5-0.7,0.3-1.1c-0.7-1.1-2.1-3.1-4.3-3.6C179.9,250.7,177,251.3,175.3,254.9z"></path>
			</g>
			<g>
				<path class="st31" d="M178.6,253.3c0,0,1.6-0.7,2.6-1.2c0.1-0.1,1.3-1.5,2.9-1.1c2.2,0.5,3.6,2.2,4.3,3.2      c0.2,0.4,0.7,0.5,1.1,0.2l0,0c0.4-0.2,0.5-0.7,0.3-1.1c-0.7-1.1-2.1-3.1-4.3-3.6C183.1,249.1,180.2,249.7,178.6,253.3z"></path>
			</g>
		</g>
	</g>
</g>
<g>
	<g>
		<path class="st32" d="M102.1,256.5c-0.3,1.8-0.6,3.6-0.9,5.4c-0.3,1.9,1,3.5-1.1,5.5H29.9c0.4-1.5,0.9-2.9,1.5-4.3    c1.3-3.1,3.2-6.2,6.7-7c1.9-0.4,3.7-0.3,5.6-0.2c1.8,0.1,3.4-0.1,4.3-1.8c0.8-1.6,1.1-3.4,1.5-5.1c0.4-1.6,0.8-3.2,1.6-4.7    c3.1-5.9,10.4-5.5,15.6-8.3c0.4-0.2,0.8-0.5,1.2-0.8c0.7-0.8,1.4-1.8,2-2.6c1.5-2.1,2.9-4.3,4.5-6.4c2.6-3.3,5.9-6.4,10-7.5    c0.8-0.3,1.7-0.6,2.6-0.7c2.9-0.4,5.8,0.5,8.3,1.9c2.7,1.6,5,3.9,6.5,6.6c1.6,2.7,2.3,5.8,2.6,8.9c0.3,3.5-0.1,7-0.6,10.5    C103.3,249.5,102.7,253,102.1,256.5z"></path>
		<g>
			<g>
				<g>
					<path class="st33" d="M82.4,273.5L82.4,273.5c-4.2-0.2-7.5-3.8-7.3-8l0.7-15.5c0.2-4.2,3.8-7.5,8-7.3l0,0       c4.2,0.2,7.5,3.8,7.3,8l-0.7,15.5C90.2,270.4,86.6,273.7,82.4,273.5z"></path>
					<path class="st34" d="M84.5,242.8l-1.3-0.1c-3.8-0.2-7.2,2.8-7.3,6.7l-0.3,5.5c4.7,4.4,11.3,7.1,15,6.9l0.6-11.7       C91.3,246.3,88.3,243,84.5,242.8z"></path>
				</g>
				<path class="st33" d="M104,234.8c0.1-1.8-0.2-3.5-0.6-5.1c0-0.1,0-0.1,0-0.1l0,0c-1.9-6.3-7.6-11-14.5-11.3      c-8.1-0.4-15.1,5.4-16.4,13.3l0,0c-1.1,3.3,1,11.2,2.3,15.6c0.6,2,1.7,3.7,3.2,5.1c5.2,4.6,17.8,12.3,22.8,6      C105.1,252.4,104.6,242,104,234.8z"></path>
				<path class="st35" d="M98.5,247c0,0-1.8,1.6-4.4-0.2"></path>
				<g>
					<path class="st32" d="M82.3,238.7c-0.1,0-0.2,0-0.2-0.1c-0.2-0.1-0.2-0.4-0.1-0.6c2.5-3.1,6.8-1,6.8-1c0.2,0.1,0.3,0.4,0.2,0.6       s-0.3,0.3-0.6,0.2c-0.2-0.1-3.7-1.8-5.8,0.8C82.6,238.6,82.5,238.7,82.3,238.7z"></path>
				</g>
				<path class="st32" d="M104.2,238c0-0.3,0-0.6-0.1-0.8c-1.7-0.2-3.3,0.4-3.3,0.4c-0.2,0.1-0.3,0.3-0.2,0.5      c0.1,0.2,0.3,0.3,0.5,0.2C101.2,238.4,102.7,237.8,104.2,238z"></path>
				<g>
					<g>
						<path class="st32" d="M92.5,244.5c-0.1,0-0.2-0.1-0.3-0.2c-0.2-0.2-3.8-5.1-9.8-1.9c-0.2,0.1-0.4,0-0.6-0.2s0-0.4,0.2-0.6        c6.7-3.6,10.9,2,10.9,2.1c0.1,0.2,0.1,0.4-0.1,0.6C92.7,244.4,92.6,244.5,92.5,244.5z"></path>
					</g>
				</g>
				<path class="st32" d="M104.4,241.2c-1.8-0.1-3.8,0.5-5.9,2.3c-0.2,0.1-0.2,0.4-0.1,0.6c0.2,0.2,0.4,0.2,0.6,0.1      c2-1.7,3.8-2.1,5.4-2.1C104.4,241.8,104.4,241.5,104.4,241.2z"></path>
				<g>
					<path class="st33" d="M67,243c0.2-3.4,3.1-6,6.4-5.9c3.4,0.2,6,3.1,5.9,6.4c-0.2,3.4-3.1,6-6.4,5.9       C69.5,249.3,66.9,246.4,67,243z"></path>
					<path class="st35" d="M76,244.1c0,0-1.7-5.1-7.1-4.2"></path>
				</g>
				<path class="st35" d="M97.1,252.8c0,0-6,1.8-8.5-3.8"></path>
			</g>
		</g>
		<path class="st32" d="M72.4,231.5L72.4,231.5c1.3-7.9,8.3-13.7,16.5-13.3c6.9,0.3,12.6,5,14.5,11.3l0,0v0.1    c0.5,1.6,0.7,1.9,0.6,3.7c0,0-3.4-1.7-10.6-8.5c-0.5-0.4-2.3-5.7-2.3-5.7l2,5.5c0,0-0.8,14.1-21,12.4l0.2-0.6    C72,234.5,72,232.7,72.4,231.5z"></path>
		<path class="st36" d="M73.8,248.6c0-2.8-2.2-5-5-5s-5,2.2-5,5s2.2,5,5,5C71.6,253.6,73.8,251.4,73.8,248.6z"></path>
	</g>
	<g>
		<path class="st33" d="M50.5,382.8c0,0-10.3-4.5-15,3.8c0,0-34.2,7.7-34.8,10.4s1.2,3.8,1.2,3.8h47.8L50.5,382.8z"></path>
		<path class="st37" d="M23.1,344.2l116.4,5.3c0,0,18.2,2.7,18.2,26.4s-33.6,27-33.6,27L45,401.6l1.3-32.6    C46.4,369,20.2,370.7,23.1,344.2z"></path>
		<line class="st38" x1="46.4" y1="369" x2="133.4" y2="373.5"></line>
	</g>
	<g>
		<g>
			<path class="st33" d="M156.3,325.6c0,0,16.2-6.2,16.4-4.9c0.2,1.3-5,4-5,4s7.8,1,12,1.2c1.6,0.1,3,1.4,3.3,3l0.8,4.3     c0,0-7.9,0.9-12.2,1s-17.1-0.1-17.1-0.1L156.3,325.6z"></path>
			<line class="st39" x1="182.9" y1="328.5" x2="173.1" y2="328.1"></line>
			<line class="st39" x1="183.4" y1="331.2" x2="173.5" y2="330.8"></line>
		</g>
		<path class="st40" d="M23.1,344.2c0,0,8.9-80.1,52.4-87.7l-0.4-3.8l16.7,7.8l-1.2,1.3l15.1,40.4c1.7,7.4,7.6,13,15.1,14.3l37,6.7    v15.4c0,0-51.1,7.9-62.2,3.1l0.7,5.9L23.1,344.2z"></path>
		<path class="st38" d="M95.6,341.6c0,0-27.2-14.8-22.8-49"></path>
		<polygon class="st41" points="157.8,323.2 151.2,322 151.6,339.5 157.8,338.6   "></polygon>
	</g>
</g>
<g>
	<g>
		<g>
			<path class="st42" d="M403.5,399.2c1.9,0.6,56,0.5,58.1-0.8c0.8-0.5,1.2-8.4,1.5-17.9c0.1-2.1,0.1-4.2,0.1-6.4     c0.2-14,0.2-28.9,0.2-28.9h-36.2L428,374l0.2,6.4c0,0-20.7,9.3-22.8,11C403.3,393.1,401.6,398.5,403.5,399.2z"></path>
			<path class="st7" d="M403.5,399.2c1.9,0.6,56,0.5,58.1-0.8c1-0.6,1.4-12.1,1.6-24.3H428l0.2,6.4c0,0-20.7,9.3-22.8,11     C403.3,393.1,401.6,398.5,403.5,399.2z"></path>
			<g>
				<path class="st43" d="M403.5,399.2c1.9,0.6,56,0.5,58.1-0.8c0.8-0.5,1.2-8.4,1.5-17.9h-34.9c0,0-20.7,9.3-22.8,11      C403.3,393.1,401.6,398.5,403.5,399.2z"></path>
				<g>
					<g>
						<path class="st44" d="M404.3,397c9.1-0.3,45.7-0.4,54.7,0c0.1,0,0.1,0,0,0.1c-9,0.4-45.6,0.3-54.7,0        C404.1,397.1,404.1,397,404.3,397z"></path>
						<path class="st44" d="M408.9,389.5c2.1-0.1,4.3,0.9,5.4,2.2c1.1,1.2,2.1,3,2,4.8c0,0-0.1,0.1-0.1,0c-0.5-3.5-3.8-6.7-7.4-6.9        C408.8,389.6,408.8,389.5,408.9,389.5z"></path>
						<path class="st44" d="M424.6,381.3c3.6-0.1,7.8,1.2,10.1,4.2c0.1,0.1-0.1,0.2-0.2,0.2c-3.3-1.7-6.4-2.9-10-3.9        C424.3,381.7,424.4,381.3,424.6,381.3z"></path>
						<path class="st44" d="M421.9,382.4c3.6-0.1,7.8,1.2,10.1,4.2c0.1,0.1-0.1,0.2-0.2,0.2c-3.3-1.7-6.4-2.9-10-3.9        C421.5,382.8,421.6,382.4,421.9,382.4z"></path>
						<path class="st44" d="M419,383.5c3.6-0.1,7.8,1.2,10.1,4.2c0.1,0.1-0.1,0.2-0.2,0.2c-3.3-1.7-6.4-2.9-10-3.9        C418.7,383.9,418.8,383.5,419,383.5z"></path>
						<path class="st44" d="M416.3,384.6c3.6-0.1,7.8,1.2,10.1,4.2c0.1,0.1-0.1,0.2-0.2,0.2c-3.3-1.7-6.4-2.9-10-3.9        C415.9,385,416,384.6,416.3,384.6z"></path>
						<path class="st44" d="M456.6,388.4c4.1,0,4.1,6.3,0,6.3C452.5,394.8,452.5,388.4,456.6,388.4z"></path>
					</g>
					<path class="st44" d="M421,377c2,2.5,5,4.1,7.5,5.9c0.3,0.2,0.6,0,0.6-0.3c0.1,0,0.1,0,0.1-0.1c-0.2-3.1-1.5-6.7-3.3-9.3       c-1.1-1.6-3.5-3.1-5.3-1.5C419,373.1,419.9,375.5,421,377z M420.8,374c0.4-4,3.9-0.9,4.7,0.3c0.5,0.8,0.9,1.6,1.3,2.5       c0.8,1.7,1.4,3.6,2.1,5.4c-1.2-1-2.5-1.8-3.8-2.7C423.7,378.3,420.6,376.1,420.8,374z"></path>
					<path class="st44" d="M442.2,380.1c-0.3-2.4-3-2.9-4.9-2.5c-3.1,0.6-6.5,2.4-8.8,4.5c-0.1,0,0,0.1,0,0.1       c-0.1,0.2,0,0.6,0.3,0.7c3.1,0.5,6.4,1.4,9.5,0.9C440.2,383.5,442.5,382.3,442.2,380.1z M433.7,382.6c-1.5-0.2-3-0.5-4.6-0.6       c1.7-0.9,3.4-1.8,5.2-2.5c0.9-0.3,1.8-0.7,2.6-0.9c1.4-0.3,6.1-0.1,3.6,3C439.2,383.4,435.5,382.9,433.7,382.6z"></path>
				</g>
			</g>
		</g>
		<g>
			<path class="st42" d="M504.5,403.9c1.9-0.7,43.5-35.3,44.3-37.6c0.3-0.9-4.4-7.2-10.3-14.8c-1.3-1.6-2.6-3.3-3.9-5     c-8.8-11-18.3-22.4-18.3-22.4l-27.9,23l19.1,21.8l4.2,4.8c0,0-10,20.4-10.6,23C500.5,399.4,502.7,404.6,504.5,403.9z"></path>
			<path class="st7" d="M504.5,403.9c1.9-0.7,43.5-35.3,44.3-37.6c0.3-1.1-6.6-10.2-14.2-19.7L507.4,369l4.2,4.8     c0,0-10,20.4-10.6,23C500.5,399.4,502.7,404.6,504.5,403.9z"></path>
			<g>
				<path class="st43" d="M504.5,403.9c1.9-0.7,43.5-35.3,44.3-37.6c0.3-0.9-4.4-7.2-10.3-14.8l-26.9,22.2c0,0-10,20.4-10.6,23      C500.5,399.4,502.7,404.6,504.5,403.9z"></path>
				<g>
					<g>
						<path class="st44" d="M503.7,401.8c6.8-6,35-29.4,42.2-34.8c0.1,0,0.1,0,0,0c-6.7,6.1-35,29.3-42.1,34.8        C503.7,402,503.6,401.9,503.7,401.8z"></path>
						<path class="st44" d="M502.5,393c1.6-1.4,3.9-2,5.6-1.8c1.6,0.2,3.5,0.9,4.6,2.4c0,0,0,0.1-0.1,0.1        C509.9,391.4,505.5,391,502.5,393C502.5,393.2,502.4,393.1,502.5,393z"></path>
						<path class="st44" d="M509.5,376.7c2.8-2.4,6.8-4.1,10.4-3.2c0.1,0,0.1,0.2,0,0.3c-3.6,0.8-6.8,1.8-10.2,3.3        C509.5,377.2,509.3,376.9,509.5,376.7z"></path>
						<path class="st44" d="M508,379.4c2.8-2.4,6.8-4.1,10.5-3.2c0.1,0,0.1,0.2,0,0.3c-3.6,0.8-6.8,1.8-10.2,3.3        C508,379.8,507.8,379.5,508,379.4z"></path>
						<path class="st44" d="M506.5,382c2.8-2.4,6.8-4.1,10.5-3.2c0.1,0,0.1,0.2,0,0.3c-3.6,0.8-6.8,1.8-10.2,3.3        C506.5,382.5,506.4,382.1,506.5,382z"></path>
						<path class="st44" d="M505.1,384.6c2.8-2.4,6.8-4.1,10.4-3.2c0.1,0,0.1,0.2,0,0.3c-3.6,0.8-6.8,1.8-10.2,3.3        C505.1,385.1,504.9,384.8,505.1,384.6z"></path>
						<path class="st44" d="M538.6,361.9c3.1-2.6,7.2,2.3,4,4.9C539.5,369.3,535.5,364.5,538.6,361.9z"></path>
					</g>
					<path class="st44" d="M503.9,375.7c3.1,0.7,6.4,0,9.6-0.3c0.3,0,0.4-0.4,0.3-0.6c0,0,0.1-0.1,0-0.1c-2.1-2.3-5.4-4.2-8.5-5       c-1.9-0.5-4.6-0.2-5.1,2.2C499.8,374,502.1,375.3,503.9,375.7z M501.8,373.5c-2.3-3.3,2.4-3.2,3.8-2.8c0.9,0.3,1.8,0.6,2.6,1       c1.8,0.8,3.4,1.9,5,2.8c-1.5,0-3.1,0.2-4.6,0.3C506.8,375,503.1,375.3,501.8,373.5z"></path>
					<path class="st44" d="M522.2,364.6c-1.7-1.6-4.1-0.3-5.4,1.2c-2,2.4-3.5,5.9-3.9,9c0,0.1,0,0.1,0.1,0.1       c0.1,0.3,0.3,0.5,0.6,0.3c2.7-1.6,5.8-3,7.9-5.4C522.8,368.5,523.9,366.1,522.2,364.6z M517.3,372c-1.3,0.8-2.7,1.6-3.9,2.5       c0.8-1.8,1.5-3.5,2.4-5.2c0.5-0.8,0.9-1.6,1.5-2.4c0.9-1.1,4.6-3.9,4.7,0C522,369.1,518.8,371,517.3,372z"></path>
				</g>
			</g>
		</g>
		<g>
			<path class="st37" d="M426.5,370h38.1c0,0-0.4-28,0-50.6c0-0.8,0-1.6,0-2.4c0-1.6,0.1-3.1,0.1-4.6l0,0c0-0.8,0-1.5,0-2.3     c0-1.6,0.1-3.1,0.1-4.6c0-0.2,0-0.5,0-0.7c0-0.6,0-1.1,0-1.7c0-1.6,0.1-3.1,0.1-4.6c0-0.8,0-1.5,0.1-2.3c0.1-3.4,0.2-6.1,0.3-7.8     c0.5-7.1,6.3-38.9,11-64.4v-0.1c0.1-0.4,0.1-0.8,0.2-1.2v-0.1c0.1-0.4,0.1-0.8,0.2-1.1l0,0v-0.1c0.1-0.4,0.1-0.8,0.2-1.2v-0.1     c3.2-16.8,5.7-30.1,5.7-30.1h-40.3c0,0-12.4,84.1-14.1,98C426.9,302,426.5,370,426.5,370z"></path>
			<path class="st7" d="M428.3,363.2c6-0.1,4.2-0.2,10.2-0.2c2.9,0,22.1-0.2,24.8,0.3c0.1,0,0.1,0.1,0,0.1     c-2.7,0.5-21.9,0.3-24.8,0.3c-6-0.1-4.2-0.1-10.2-0.2C428.2,363.3,428.2,363.2,428.3,363.2z"></path>
			<g>
				<path class="st45" d="M449.6,222.8l15.3,82c0-0.6,0-1.1,0-1.7c0-1.6,0.1-3.1,0.1-4.6c0-0.8,0-1.5,0.1-2.3      c0.1-3.4,0.2-6.1,0.3-7.8c0.5-7.1,6.3-38.9,11-64.4v-0.1c0.1-0.4,0.1-0.8,0.2-1.2v-0.1c0.1-0.4,0.1-0.8,0.2-1.1L449.6,222.8z"></path>
			</g>
		</g>
		<g>
			<path class="st37" d="M448.7,191.3c-5.5,19.1,0.5,27.9,0.5,27.9s2.2,59.2,7,78.2s47.3,70.8,47.3,70.8l31.6-24.9     c0,0-40.1-40.9-42.4-48.9c-1.3-4.5-7.5-54.1-5.7-58.1c8.5-19.3,5.1-33.9,5.1-33.9L448.7,191.3z"></path>
			<g>
				<path class="st7" d="M450.2,225.5c0,9.6-0.1,13.2,0.7,22.8c0.8,9.5,2,19,2.4,28.6c0,0.1-0.1,0.1-0.1,0c-1.5-9.3-2.3-18.8-3-28.2      c-0.8-9.7-0.8-13.4-0.6-23.1C449.6,225.1,450.2,225.1,450.2,225.5z"></path>
				<path class="st44" d="M444.6,220c3.2,2.6,6.1,5.8,8.9,8.9c0.1,0.1-0.1,0.3-0.2,0.2c-3-2.9-6.2-5.7-9-8.8      C444,220.1,444.3,219.8,444.6,220z"></path>
				<path class="st44" d="M453.8,193.8c0.1-0.1,0.3-0.1,0.2,0.1c-1.6,4.3-2.7,8.1-3.8,12.3c-0.5,1.9-2.8,12.7,0.7,13.2      c0.6,0.1,1.1-0.4,1.4-1.1c0.5-0.9,0.5-2.3,0.7-3.3c0.4-2.3,0.9-4.5,1.6-6.8c1.1-4.2,2.6-8.2,4.6-12.1c0.1-0.1,0.3-0.1,0.2,0.1      c-2.1,5.6-4,11.3-5.2,17.1c-0.6,2.8-0.7,7.3-3.7,6.7s-2.4-8-2-10C449.4,204.4,451.5,198.8,453.8,193.8z"></path>
				<path class="st44" d="M450.7,219.5c0,0.8,0,1.6-0.1,2.4c0,0.6-0.1,1.3-0.3,1.9c0,0.1-0.2,0.1-0.2,0c-0.2-0.6-0.1-1.3-0.1-2      c0-0.8,0-1.5,0-2.2C449.9,219,450.6,219.1,450.7,219.5z"></path>
			</g>
			<path class="st7" d="M499.5,361.8c4.5-3.9,3.1-2.9,7.6-6.8c2.2-1.9,16.7-14.4,19.1-15.8c0,0,0.1,0,0.1,0.1     c-1.8,2.1-16.5,14.4-18.7,16.2c-4.6,3.8-3.3,2.7-7.9,6.4C499.5,362,499.4,361.9,499.5,361.8z"></path>
		</g>
	</g>
	<g>
		<g>
			<path class="st42" d="M459.1,141.7c-0.4,6.7-10.5,42.3-22,49.8c-10.8,7-40.8,2.1-47.1,0.2c-2.8-0.8,2.3-17.6,4.8-19.5     c2.5-1.8,28.7,1.8,30.9,1c2.2-0.7,14.6-16.3,20.7-25.7C450.4,141.6,459.4,137,459.1,141.7z"></path>
			<g>
				<path class="st26" d="M459.3,140.4c1.3,5.4-5.6,31.8-6.2,31.8s-18.4-9-18.5-9.9s8.4-12.1,12.3-16.6      C450.9,141.2,458.4,136.5,459.3,140.4z"></path>
				<path class="st44" d="M437.2,158.9c2.9,1.4,14.1,7.7,16.8,9.3c0.2,0.1,0,0.4-0.2,0.3c-2.9-1.4-14.1-7.6-16.8-9.3      C436.8,159.1,437,158.8,437.2,158.9z"></path>
			</g>
		</g>
		<g>
			<path class="st7" d="M466.4,140.4c7.1,4.5,11.7,12.4,13.7,19.7c2,7.2,7.4,30.8,6.3,31.4c-1.2,0.7-15.5,11-28.2,8.6     c-12.6-2.4-17.8-5.7-19.4-7.5s5.1-34.7,6.6-40.7s6.1-12.5,7.5-12.7C454.4,139.2,463.7,138.7,466.4,140.4z"></path>
			<path class="st46" d="M450.3,142.6c0-0.2,0.3-0.2,0.3,0c0.1,2.2-0.1,4.7,1.6,6.3c1.9,1.9,4.9,0.8,7-0.2c3.2-1.6,5.6-4.3,7.5-7.2     c0.1-0.1,0.2,0,0.2,0.1c-2.2,3.9-5.8,7.5-10.3,8.6C451.5,151.5,449.8,147,450.3,142.6z"></path>
		</g>
		<path class="st26" d="M462.1,205.1c0.3,0.1,5.5-0.6,11.5-2.8c0.1-0.1,0.3-0.1,0.4-0.1c0.1-0.1,0.3-0.1,0.5-0.2    c0.1-0.1,0.2-0.1,0.3-0.1c0.1-0.1,0.3-0.1,0.4-0.1c0,0,0.1,0,0.1-0.1c0.2-0.1,0.5-0.2,0.7-0.3c0.1-0.1,0.3-0.1,0.4-0.2    c0.3-0.1,0.5-0.2,0.8-0.3c0.1-0.1,0.3-0.1,0.4-0.2c4.1-1.9,8.1-4.4,11.1-7.9c1.4-1.6-3.7-18.9-7.2-30.3c0-0.1-0.1-0.2-0.1-0.4    c-0.1-0.5-0.3-1-0.5-1.4c0-0.1-0.1-0.2-0.1-0.4c0-0.1,0-0.1,0-0.2c-0.1-0.4-0.3-0.9-0.4-1.3c0-0.1-0.1-0.2-0.1-0.4v-0.1    c-0.2-0.5-0.3-0.9-0.4-1.3l0,0c0-0.1-0.1-0.2-0.1-0.4c-0.4-1.3-0.8-2.4-1-3.1c-2-6.2-13.2-14.8-13.2-14.8S461.6,204.9,462.1,205.1    z"></path>
		<g>
			<path class="st26" d="M452,139.8c0,0-9,60.3-9.8,60.8c-0.9,0.5-5-5.1-5.3-8.1c-0.3-2.9,7.5-40.7,9.2-44.1     C447.8,145,452,139.8,452,139.8z"></path>
			<path class="st44" d="M443.4,158.4c0.1-1.1,0.2-2.1,0.2-3.2c0-0.1,0.1-0.1,0.1,0c0,0.6,0,1.2,0,1.9c0.4-1.6,0.8-3.3,1.2-5     c0-0.1,0.1-0.1,0.1,0c-2,10.2-4.3,20.4-6.8,30.6c0,0.2-0.3,0.1-0.3-0.1C439.6,174.5,441.4,166.4,443.4,158.4z"></path>
		</g>
		<path class="st44" d="M469.5,151.5l5,50.5c0.1-0.1,0.2-0.1,0.3-0.1c0.1-0.1,0.3-0.1,0.4-0.1c0,0,0.1,0,0.1-0.1    c0.2-0.1,0.5-0.2,0.7-0.3c0.1-0.1,0.3-0.1,0.4-0.2c0.3-0.1,0.5-0.2,0.8-0.3c0.1-0.1,0.3-0.1,0.4-0.2c4.1-1.9,8.1-4.4,11.1-7.9    c1.4-1.6-3.7-18.9-7.2-30.3c0-0.1-0.1-0.2-0.1-0.4c-0.1-0.5-0.3-1-0.5-1.4c0-0.1-0.1-0.2-0.1-0.4c0-0.1,0-0.1,0-0.2    c-0.1-0.4-0.3-0.9-0.4-1.3c0-0.1-0.1-0.2-0.1-0.4v-0.1L469.5,151.5z"></path>
	</g>
	<g>
		<g>
			<g>
				<path class="st42" d="M454,147.1c3,1,8.5-3.2,10.9-6.8c0.2-0.3,0-3,0-6.3c0-2,0-4.3,0.2-6.3c0-0.4-1.5,0.2-1.5,0.2l-2.7,0.4      l-9,1.4c0,0,0.9,4.4,0.6,8c0,0.3-0.1,0.6-0.2,0.8v0.1C451.9,140.3,451.2,146.2,454,147.1z"></path>
			</g>
			<path class="st44" d="M452.4,138.6v0.1c0.4,0.1,0.8,0.1,1.3,0.2c8.7,0.6,10.7-10.4,10.7-10.4l-3.4-0.1l-9,1.4c0,0,0.9,4.4,0.6,8     C452.5,138,452.4,138.3,452.4,138.6z"></path>
		</g>
		<g>
			<path class="st44" d="M450.6,105.8c0,0-4.3,2.2-4.8,6.7s0.9,9.2,1.3,9.4C447.6,122,450.6,105.8,450.6,105.8z"></path>
			<g>
				<path class="st42" d="M468,111.5c1.6,4.5-0.3,17.9-3.4,20.9c-4.5,4.5-12.3,5.2-16.1-0.3c-3.8-5.4-1-22.7,2.5-25.5      C456.1,102.4,465.6,104.8,468,111.5z"></path>
			</g>
			<g>
				<path class="st44" d="M467.6,124.9c-1.6,0.2-2.7-4.7-2.9-6.6c-0.2-1.6,0.1-6.7,0-7.1c0-0.3-7.4,3.4-11.1,1.6s-5.8-5.7-5.6-7.3      c0.2-1.6,5.7-5,9.9-4.6c4.2,0.4,9,6.6,9,6.6s-1.6-2.6-1.5-2.8s2.6,1.3,2.8,3.3c0,0-0.2-2.5,0-2.5s2,2.4,1.3,3.9      c0,0,2.1,2.5,2,4.8C471.5,116.8,469.5,124.6,467.6,124.9z"></path>
				<path class="st44" d="M451,111.7c1.1,0.7,2.2,1.5,3.5,1.9c1.4,0.4,2.9,0.3,4.3,0s2.8-0.9,4-1.6c1.1-0.7,2.1-1.5,3.3-2      c0.3-0.1,0.5,0.3,0.3,0.5c-2,2.1-5,3.7-7.9,4.1C455.5,115,453,113.9,451,111.7L451,111.7z"></path>
			</g>
			<g>
				<path class="st42" d="M465.7,124.1c0,0,2.9-4.3,4.9-3.3s-0.1,7.3-2.4,8.2s-3.1-1.2-3.1-1.2L465.7,124.1z"></path>
				<path class="st44" d="M469.9,122.5C470,122.5,470,122.6,469.9,122.5c-1.6,0.7-2.4,2.2-2.9,3.8c0.5-0.6,1.1-0.9,1.9-0.4v0.1      c-0.7-0.1-1.1,0-1.6,0.5c-0.3,0.4-0.5,0.8-0.7,1.3c-0.1,0.1-0.3,0.1-0.3-0.1l0,0C466.2,125.7,467.7,122.8,469.9,122.5z"></path>
			</g>
			<line class="st47" x1="464.9" y1="132.3" x2="464.9" y2="132.3"></line>
		</g>
		<g>
			<g>
				<path class="st44" d="M456.5,120.7C456.5,120.7,456.5,120.8,456.5,120.7c-0.1,1-0.1,2,0.7,2.4v0.1      C456.2,122.9,456.2,121.6,456.5,120.7z"></path>
				<path class="st44" d="M457.4,119.9c1.5,0.1,1.2,3-0.2,2.9C455.9,122.7,456.2,119.8,457.4,119.9z"></path>
			</g>
			<g>
				<path class="st44" d="M451,120.1C451,120,450.9,120.1,451,120.1c-0.1,1-0.4,2-1.2,2.2v0.1C450.8,122.3,451.1,120.9,451,120.1z"></path>
				<path class="st44" d="M450.3,119.1c-1.4-0.3-1.8,2.7-0.5,2.9C451.1,122.2,451.5,119.3,450.3,119.1z"></path>
			</g>
			<path class="st44" d="M458.7,118.7c-0.4-0.1-0.7-0.3-1.1-0.5s-0.8-0.3-1-0.7c-0.1-0.2,0-0.6,0.2-0.7c0.5-0.3,1-0.2,1.6,0     c0.5,0.2,0.9,0.6,1.2,1.1C459.8,118.3,459.2,118.8,458.7,118.7z"></path>
			<path class="st44" d="M449.3,117.5c0.4,0,0.8-0.1,1.2-0.2c0.5-0.1,0.8-0.1,1.2-0.4c0.2-0.2,0.2-0.6,0-0.8     c-0.4-0.5-0.9-0.5-1.5-0.4s-1,0.3-1.5,0.7C448.3,116.8,448.7,117.5,449.3,117.5z"></path>
			<path class="st44" d="M456.3,128.9c-0.5,0.4-1,1-1.7,1s-1.4-0.4-2-0.7c-0.1,0-0.1,0-0.1,0.1c0.4,0.8,1.4,1.3,2.3,1.3     c0.9-0.1,1.4-0.8,1.6-1.5C456.5,128.9,456.4,128.8,456.3,128.9z"></path>
			<g>
				<path class="st44" d="M452,126.4c0.2-1.2,0.4-2.4,0.6-3.6h0.6c-0.2,1-0.4,2-0.5,3c0.4-0.1,1-0.3,1.4-0.3      C454.1,125.6,452,126.8,452,126.4z"></path>
			</g>
		</g>
	</g>
	<g>
		<path class="st48" d="M391.2,183.9l60.9-30.6c3.5-1.8,7-2,9.9-1c3.7,1.3,6.5,4.8,7.3,9.8l6.9,45.3c1.4,8.9-3.9,19.4-12,23.5    l-58.8,29.5c-8.1,4.1-15.1-0.5-19.3-7.6l-6.9-45.3C377.7,198.6,383.1,188,391.2,183.9z"></path>
		<g>
			<path class="st49" d="M392.4,207l8.6,49.1l-1.3,0.1l-3.7-1.3c-4-1.5-6.1-5.3-6.7-9.1l-6.4-42.3l0,0c-0.8-5.5,0.9-11.2,4.2-15.8     c1.8-2.5,4.1-4.7,6.9-6.1l56.2-28.5c2.8-1.5,6.1-2,9.1-0.9l3.2,1.2c1.6,0.6,2.1,1,2.1,1.1C463.1,167.5,390.3,193.5,392.4,207z"></path>
			<path class="st50" d="M397.7,182.9l56.1-28.5c3.3-1.7,6.5-1.9,9.1-0.9c3.4,1.2,6,4.4,6.7,9.1l6.4,42.3     c1.3,8.3-3.6,18.1-11.1,21.9l-56.2,28.5c-7.4,3.8-14.5,0.2-15.8-8.1l-6.4-42.3C385.3,196.6,390.3,186.7,397.7,182.9z"></path>
			<path class="st51" d="M420.3,192.9c0.2-0.7,0.5-1.3,1.1-1.8c0.7-0.6,1.2-0.8,1.6-0.5s1,1,1.8,2.1l14.7,21.3     c0.8,1.2,1.2,1.9,1.3,2.3c0.5,1.3,0.1,2.6-1,3.7c-0.5,0.5-0.9,0.6-1.3,0.6s-0.7-0.2-1-0.6c-0.3-0.4-0.7-0.9-1.2-1.6L421.7,197     c-0.7-1-1.2-1.7-1.3-2.2C420.1,194.2,420.1,193.6,420.3,192.9L420.3,192.9z M419.3,199.5l-13.9,26.3l2,5.4l21.3-6.8l-2.4-6.3     l-14.7,5.4l10-17.7L419.3,199.5L419.3,199.5z M454,180.1l-21.3,6.8l2.4,6.4l14.6-5.5l-9.9,17.7l2.4,6.3l13.9-26.4L454,180.1z"></path>
		</g>
		<g>
			<path class="st42" d="M388.1,171.7c1.8-2.3-0.5-6.4,0.9-8.8c1.8-3.3,6.1,2.2,4.6,7.3l-1.9,3.5L388.1,171.7z"></path>
			<path class="st42" d="M391.7,168.7c-2,2.2-6.1,4.5-7.1,6.5c-0.8,1.8,0.6,3,0.6,3s-2.4,0.4-3,2.4c-0.3,1,1.1,2.4,1.1,2.4     s-2,0.4-2.3,2.2c-0.3,1.4,1.2,2.6,1.2,2.6s-1.7,1.3-1.5,2.8c0.4,3.1,12.4,6.9,15.6,3c1.5-1.8-1.5-2.5-1.5-2.5s4.5,0,5.4-2.4     s-3.1-3.2-3.1-3.2s4.4,0,5-2.6c0.6-2.7-3.4-2.8-3.4-2.8s3.2-1,3.2-3.1c0-3.5-7.9-1.3-10.4-2.7l2.3-4.4L391.7,168.7z"></path>
			<g>
				<path class="st44" d="M382.4,188C382.4,187.9,382.4,188,382.4,188c3.6,2.2,8.3,3.5,12.5,3.1c0.1,0,0.2-0.2,0-0.3      C390.5,190.4,386.6,189.6,382.4,188z"></path>
				<path class="st44" d="M383.3,183C383.2,183,383.2,183.1,383.3,183c3.7,2.3,9,3.6,13.9,2.6c0.2,0,0.3-0.2,0.1-0.2      C394,185.8,387,184.5,383.3,183z"></path>
				<path class="st44" d="M399,179.8c-4.7,0.8-9.2,0-13.6-1.5c-0.1,0-0.1,0.1,0,0.1c2,1.3,4.9,2,7.3,2.3c2.2,0.3,4.3,0.1,6.4-0.7      C399.1,180,399.1,179.8,399,179.8z"></path>
			</g>
		</g>
	</g>
	<g>
		<path class="st42" d="M471.2,142.1c5.7,3.6,32.7,27.6,33.6,41.3c0.9,12.8-13,29.9-16.8,35.4c-1.6,2.4-18.1-7.6-18.5-10.7    c-0.4-3.1,13.4-21.4,13.8-23.7s-8-18.5-13.1-28.4C466.9,149.7,467.2,139.6,471.2,142.1z"></path>
		<g>
			<path class="st42" d="M461,224c-2.2,2.9-7.5,4.8-5.9,7c1.4,2,4.9,0.3,4.9,0.3s-3.4,3.2-1.3,4.9s5.6-1,5.6-1s-2.9,2.5-0.7,4.1     c2.2,1.5,5.6-0.2,5.6-0.2s-0.3,1.3,1.7,1.7c2.9,0.5,7.8-3.7,9.8-6.5s7.2-14.6,8-16.4l-18-13c0,0-5.9,3.4-8.6,5.4     s-10,11.4-7.8,13.4s7.2-4.7,8.8-6.1s2.2-1.2,1.9-0.1C464.9,218.2,462,222.7,461,224z"></path>
			<g>
				<path class="st44" d="M460.2,231.1c4.8-2.7,6.4-4.7,8.9-9.5c0-0.1,0.2,0,0.2,0.1c-2,4.9-3.7,7.7-8.9,9.7      C460,231.4,459.9,231.2,460.2,231.1z"></path>
				<path class="st44" d="M464.1,235.2c4.7-3.3,6.4-5.4,9.5-10.2c0-0.1,0.2,0,0.1,0.1c-2.6,4.9-4.3,7.7-9.4,10.4      C464.1,235.5,463.9,235.4,464.1,235.2z"></path>
				<path class="st44" d="M469.2,239c4.3-3.5,6.3-5.8,8.7-10.8c0-0.1,0.2-0.1,0.2,0.1c-1.9,5.4-4.4,8.2-8.7,10.9      C469.1,239.3,469,239.2,469.2,239z"></path>
			</g>
		</g>
		<g>
			<path class="st26" d="M470.1,141.4c5.4,1.6,25,20.4,24.8,20.9c-0.3,0.6-16.9,11.7-17.6,11.3c-0.8-0.4-6.5-13.2-8.5-18.9     S466.2,140.3,470.1,141.4z"></path>
			<path class="st44" d="M475.5,169.7c2.6-1.9,13.5-8.5,16.3-10.1c0.2-0.1,0.4,0.2,0.2,0.3c-2.6,1.8-13.5,8.7-16.3,10.1     C475.5,170.2,475.4,169.9,475.5,169.7z"></path>
		</g>
	</g>
</g>
<g>
	<g>
		
			<linearGradient id="SVGID_2_" gradientUnits="userSpaceOnUse" x1="437.2627" y1="36.1369" x2="429.578" y2="74.9019" gradientTransform="matrix(1 0 0 1 0 8)">
			<stop offset="0.3786" style="stop-color:#ACD1FF"></stop>
			<stop offset="1" style="stop-color:#A2C4FF"></stop>
		</linearGradient>
		<path class="st52" d="M514.5,81H352.7c-2,0-3.7-1.7-3.7-3.7V47.9c0-2,1.7-3.7,3.5-3.7h161.8c2.3,0,3.9,1.7,3.9,3.7v29.4    C518.2,79.4,516.5,81,514.5,81z"></path>
		<path class="st53" d="M349.4,77.3V47.9c0-1.8,1.5-3.3,3.3-3.3h161.8c1.8,0,3.3,1.5,3.3,3.3v29.4c0,1.8-1.5,3.3-3.3,3.3H352.7    C350.9,80.7,349.4,79.2,349.4,77.3z"></path>
	</g>
	<g>
		<g>
			<g class="st25">
				
					<image style="overflow:visible;opacity:0.3;enable-background:new    ;" width="35" height="35" xlink:href="6254CD6A.png" transform="matrix(0.9714 0 0 0.9714 349.5735 48.5735)">
				</image>
				<g>
					<circle class="st26" cx="369.3" cy="62.6" r="11.9"></circle>
				</g>
			</g>
		</g>
		<g class="st25">
			
				<image style="overflow:visible;opacity:0.2;enable-background:new    ;" width="123" height="18" xlink:href="6254CD65.png" transform="matrix(0.9444 0 0 0.9444 391.81 54.8933)">
			</image>
			<g>
				<g>
					<g>
						<path class="st26" d="M455.5,60.1h-62.9c-1,0-1.9-0.8-1.9-1.9s0.8-1.9,1.9-1.9h62.9c1,0,1.9,0.8,1.9,1.9        C457.3,59.3,456.5,60.1,455.5,60.1z"></path>
					</g>
					<g>
						<path class="st26" d="M507.3,60.1h-43.4c-1,0-1.9-0.8-1.9-1.9s0.8-1.9,1.9-1.9h43.4c1,0,1.9,0.8,1.9,1.9        C509.2,59.3,508.3,60.1,507.3,60.1z"></path>
					</g>
					<g>
						<path class="st26" d="M415,69.5h-22.5c-1,0-1.9-0.8-1.9-1.9s0.8-1.9,1.9-1.9H415c1,0,1.9,0.8,1.9,1.9        C416.9,68.6,416,69.5,415,69.5z"></path>
					</g>
				</g>
			</g>
		</g>
	</g>
</g>
</svg>